<?xml version="1.0" encoding="utf-8"?>
<!-- Generator: Adobe Illustrator 25.2.3, SVG Export Plug-In . SVG Version: 6.00 Build 0)  -->
<svg version="1.1" id="Layer_1" xmlns="http://www.w3.org/2000/svg" xmlns:xlink="http://www.w3.org/1999/xlink" x="0px" y="0px"
	 viewBox="0 0 510.1 510.1" style="enable-background:new 0 0 510.1 510.1;" xml:space="preserve">
<style type="text/css">
	.st0{fill:#FFFFFF;}
</style>
<g>
	<g>
		<path class="st0" d="M404.4,318.5c-11.8,0-21.3-9.6-21.3-21.3s9.6-21.3,21.3-21.3H510c-4.5-54.6-26.2-104.3-59.6-143.8l-44.4,44.5
			c-4.2,4.2-9.6,6.3-15.1,6.3c-5.5,0-10.9-2.1-15.1-6.3c-8.3-8.3-8.3-21.8,0-30.2l44.4-44.5C380.7,68.4,331,46.8,276.4,42.3v105.6
			c0,11.8-9.5,21.3-21.3,21.3c-11.8,0-21.3-9.6-21.3-21.3V42.3c-54.5,4.5-104.3,26.2-143.8,59.6l44.4,44.5c8.3,8.3,8.3,21.8,0,30.2
			c-4.2,4.2-9.6,6.3-15.1,6.3c-5.5,0-10.9-2.1-15.1-6.3l-44.4-44.5C26.3,171.6,4.7,221.3,0.1,275.9h105.6c11.8,0,21.3,9.6,21.3,21.3
			s-9.5,21.3-21.3,21.3H0c4.4,51.8,24.4,101.4,57.6,141.6c4,4.9,10.1,7.7,16.4,7.7h362c6.4,0,12.4-2.8,16.4-7.7
			c33.2-40.2,53.3-89.8,57.6-141.6L404.4,318.5L404.4,318.5z M258.7,339.9l-60.3-60.3l120.7-60.4L258.7,339.9z"/>
	</g>
</g>
</svg>
