<?xml version="1.0" encoding="utf-8"?>
<!-- Generator: Adobe Illustrator 25.2.3, SVG Export Plug-In . SVG Version: 6.00 Build 0)  -->
<svg version="1.1" id="Layer_1" xmlns="http://www.w3.org/2000/svg" xmlns:xlink="http://www.w3.org/1999/xlink" x="0px" y="0px"
	 viewBox="0 0 512 512" style="enable-background:new 0 0 512 512;" xml:space="preserve">
<style type="text/css">
	.st0{fill:#FFFFFF;}
</style>
<path class="st0" d="M383.3,271.7c9.8,16.5,14.7,35.7,14.7,57.7c0,33.9-10.1,62.1-30.2,84.6c-20.2,22.6-49.3,35.8-87.3,39.8v58.1
	H232v-57.6c-63.5-6.6-102.7-43.3-117.9-110.5l75-19.5c6.9,42.2,29.9,63.3,68.9,63.3c18.2,0,31.7-4.5,40.3-13.6
	c8.6-9.1,13-20,13-32.8c0-13.3-4.3-23.4-13-30.1c-8.6-6.9-27.7-15.5-57.4-25.9c-26.7-9.3-47.5-18.4-62.5-27.5
	c-15-9-27.2-21.6-36.5-37.9c-9.3-16.3-14.1-35.3-14.1-56.9c0-28.3,8.3-53.9,25.1-76.6c16.6-22.7,43-36.5,78.9-41.6V0.1h48.5v44.8
	c54.2,6.6,89.2,37.1,105.2,92l-66.9,27.4c-13.1-37.6-33.1-56.3-60.5-56.3c-13.8,0-24.6,4.2-32.9,12.6c-8.3,8.3-12.5,18.6-12.5,30.5
	c0,12.2,4,21.6,12,28.2c8,6.6,25.1,14.6,51.3,24.2c28.8,10.6,51.3,20.5,67.7,29.7C360.4,242.4,373.4,255.4,383.3,271.7z"/>
</svg>
