<svg xmlns="http://www.w3.org/2000/svg" xmlns:svgjs="http://svgjs.com/svgjs" xmlns:xlink="http://www.w3.org/1999/xlink" width="288" height="288"><svg xmlns="http://www.w3.org/2000/svg" width="288" height="288" enable-background="new 0 0 490 490" viewBox="0 0 490 490"><path fill="#fff" d="M480,325h-5V45c0-5.523-4.477-10-10-10H300V10c0-5.523-4.477-10-10-10h-90c-5.523,0-10,4.477-10,10v25H25
				c-5.523,0-10,4.477-10,10v280h-5c-5.523,0-10,4.477-10,10v35c0,5.523,4.477,10,10,10h152.338l-50.913,84.855l17.149,10.29
				L185.662,380H235v110h20V380h49.338l57.087,95.145l17.149-10.29L327.662,380H480c5.523,0,10-4.477,10-10v-35
				C490,329.477,485.523,325,480,325z M210,20h70v15h-70V20z M35,55h420v270H35V55z M470,360H20v-15h450V360z" class="color000 svgShape"/><path fill="#fff" d="M170,90c-55.14,0-100,44.86-100,100s44.86,100,100,100s100-44.86,100-100S225.14,90,170,90z M170,270
				c-44.112,0-80-35.888-80-80c0-40.724,30.593-74.413,70-79.353V190c0,5.523,4.477,10,10,10h79.353
				C244.413,239.407,210.724,270,170,270z M180,180v-69.353c36.128,4.529,64.824,33.225,69.353,69.353H180z" class="color000 svgShape"/><rect width="70" height="20" x="345" y="130" fill="#fff" class="color000 svgShape"/><rect width="70" height="20" x="345" y="160" fill="#fff" class="color000 svgShape"/><rect width="70" height="20" x="345" y="190" fill="#fff" class="color000 svgShape"/><rect width="45" height="20" x="345" y="100" fill="#fff" class="color000 svgShape"/><path fill="#fff" d="M324.999,119.999v-20h-45c-2.652,0-5.196,1.054-7.071,2.929l-15,15l14.143,14.143l12.07-12.072H324.999z" class="color000 svgShape"/><rect width="115" height="20" x="310" y="235" fill="#fff" class="color000 svgShape"/><rect width="145" height="20" x="280" y="270" fill="#fff" class="color000 svgShape"/></svg></svg>